<?xml version="1.0" encoding="utf-8" standalone="no"?>
<!DOCTYPE svg PUBLIC "-//W3C//DTD SVG 1.1//EN"
  "http://www.w3.org/Graphics/SVG/1.1/DTD/svg11.dtd">
<svg height="250.202187pt" version="1.1" viewBox="0 0 398.600312 250.202187" width="398.600312pt" xmlns="http://www.w3.org/2000/svg" xmlns:xlink="http://www.w3.org/1999/xlink">
 <metadata>
  <rdf:RDF xmlns:cc="http://creativecommons.org/ns#" xmlns:dc="http://purl.org/dc/elements/1.1/" xmlns:rdf="http://www.w3.org/1999/02/22-rdf-syntax-ns#">
   <cc:Work>
    <dc:type rdf:resource="http://purl.org/dc/dcmitype/StillImage"/>
    <dc:date>2022-12-12T10:26:20.397395</dc:date>
    <dc:format>image/svg+xml</dc:format>
    <dc:creator>
     <cc:Agent>
      <dc:title>Matplotlib v3.4.3, https://matplotlib.org/</dc:title>
     </cc:Agent>
    </dc:creator>
   </cc:Work>
  </rdf:RDF>
 </metadata>
 <defs>
  <style type="text/css">*{stroke-linecap:butt;stroke-linejoin:round;}</style>
 </defs>
 <g id="figure_1">
  <g id="patch_1">
   <path d="M 0 250.202187 
L 398.600312 250.202187 
L 398.600312 0 
L 0 0 
z
" style="fill:#ffffff;"/>
  </g>
  <g id="axes_1">
   <g id="patch_2">
    <path d="M 108.990313 186.86 
L 391.400312 186.86 
L 391.400312 7.2 
L 108.990313 7.2 
z
" style="fill:#eaeaf2;"/>
   </g>
   <g id="matplotlib.axis_1">
    <g id="xtick_1">
     <g id="line2d_1">
      <path clip-path="url(#p63dc96736a)" d="M 121.826282 186.86 
L 121.826282 7.2 
" style="fill:none;stroke:#ffffff;stroke-linecap:round;"/>
     </g>
     <g id="text_1">
      <!-- 0 -->
      <g style="fill:#262626;" transform="translate(115.709251 212.107187)scale(0.22 -0.22)">
       <defs>
        <path d="M 266 2259 
Q 266 3072 433 3567 
Q 600 4063 929 4331 
Q 1259 4600 1759 4600 
Q 2128 4600 2406 4451 
Q 2684 4303 2865 4023 
Q 3047 3744 3150 3342 
Q 3253 2941 3253 2259 
Q 3253 1453 3087 958 
Q 2922 463 2592 192 
Q 2263 -78 1759 -78 
Q 1097 -78 719 397 
Q 266 969 266 2259 
z
M 844 2259 
Q 844 1131 1108 757 
Q 1372 384 1759 384 
Q 2147 384 2411 759 
Q 2675 1134 2675 2259 
Q 2675 3391 2411 3762 
Q 2147 4134 1753 4134 
Q 1366 4134 1134 3806 
Q 844 3388 844 2259 
z
" id="ArialMT-30" transform="scale(0.015625)"/>
       </defs>
       <use xlink:href="#ArialMT-30"/>
      </g>
     </g>
    </g>
    <g id="xtick_2">
     <g id="line2d_2">
      <path clip-path="url(#p63dc96736a)" d="M 196.542798 186.86 
L 196.542798 7.2 
" style="fill:none;stroke:#ffffff;stroke-linecap:round;"/>
     </g>
     <g id="text_2">
      <!-- 1000 -->
      <g style="fill:#262626;" transform="translate(172.074673 212.107187)scale(0.22 -0.22)">
       <defs>
        <path d="M 2384 0 
L 1822 0 
L 1822 3584 
Q 1619 3391 1289 3197 
Q 959 3003 697 2906 
L 697 3450 
Q 1169 3672 1522 3987 
Q 1875 4303 2022 4600 
L 2384 4600 
L 2384 0 
z
" id="ArialMT-31" transform="scale(0.015625)"/>
       </defs>
       <use xlink:href="#ArialMT-31"/>
       <use x="55.615234" xlink:href="#ArialMT-30"/>
       <use x="111.230469" xlink:href="#ArialMT-30"/>
       <use x="166.845703" xlink:href="#ArialMT-30"/>
      </g>
     </g>
    </g>
    <g id="xtick_3">
     <g id="line2d_3">
      <path clip-path="url(#p63dc96736a)" d="M 271.259313 186.86 
L 271.259313 7.2 
" style="fill:none;stroke:#ffffff;stroke-linecap:round;"/>
     </g>
     <g id="text_3">
      <!-- 2000 -->
      <g style="fill:#262626;" transform="translate(246.791188 212.107187)scale(0.22 -0.22)">
       <defs>
        <path d="M 3222 541 
L 3222 0 
L 194 0 
Q 188 203 259 391 
Q 375 700 629 1000 
Q 884 1300 1366 1694 
Q 2113 2306 2375 2664 
Q 2638 3022 2638 3341 
Q 2638 3675 2398 3904 
Q 2159 4134 1775 4134 
Q 1369 4134 1125 3890 
Q 881 3647 878 3216 
L 300 3275 
Q 359 3922 746 4261 
Q 1134 4600 1788 4600 
Q 2447 4600 2831 4234 
Q 3216 3869 3216 3328 
Q 3216 3053 3103 2787 
Q 2991 2522 2730 2228 
Q 2469 1934 1863 1422 
Q 1356 997 1212 845 
Q 1069 694 975 541 
L 3222 541 
z
" id="ArialMT-32" transform="scale(0.015625)"/>
       </defs>
       <use xlink:href="#ArialMT-32"/>
       <use x="55.615234" xlink:href="#ArialMT-30"/>
       <use x="111.230469" xlink:href="#ArialMT-30"/>
       <use x="166.845703" xlink:href="#ArialMT-30"/>
      </g>
     </g>
    </g>
    <g id="xtick_4">
     <g id="line2d_4">
      <path clip-path="url(#p63dc96736a)" d="M 345.975829 186.86 
L 345.975829 7.2 
" style="fill:none;stroke:#ffffff;stroke-linecap:round;"/>
     </g>
     <g id="text_4">
      <!-- 3000 -->
      <g style="fill:#262626;" transform="translate(321.507704 212.107187)scale(0.22 -0.22)">
       <defs>
        <path d="M 269 1209 
L 831 1284 
Q 928 806 1161 595 
Q 1394 384 1728 384 
Q 2125 384 2398 659 
Q 2672 934 2672 1341 
Q 2672 1728 2419 1979 
Q 2166 2231 1775 2231 
Q 1616 2231 1378 2169 
L 1441 2663 
Q 1497 2656 1531 2656 
Q 1891 2656 2178 2843 
Q 2466 3031 2466 3422 
Q 2466 3731 2256 3934 
Q 2047 4138 1716 4138 
Q 1388 4138 1169 3931 
Q 950 3725 888 3313 
L 325 3413 
Q 428 3978 793 4289 
Q 1159 4600 1703 4600 
Q 2078 4600 2393 4439 
Q 2709 4278 2876 4000 
Q 3044 3722 3044 3409 
Q 3044 3113 2884 2869 
Q 2725 2625 2413 2481 
Q 2819 2388 3044 2092 
Q 3269 1797 3269 1353 
Q 3269 753 2831 336 
Q 2394 -81 1725 -81 
Q 1122 -81 723 278 
Q 325 638 269 1209 
z
" id="ArialMT-33" transform="scale(0.015625)"/>
       </defs>
       <use xlink:href="#ArialMT-33"/>
       <use x="55.615234" xlink:href="#ArialMT-30"/>
       <use x="111.230469" xlink:href="#ArialMT-30"/>
       <use x="166.845703" xlink:href="#ArialMT-30"/>
      </g>
     </g>
    </g>
    <g id="text_5">
     <!-- elevation (m a.s.l) -->
     <g style="fill:#262626;" transform="translate(155.502187 237.950937)scale(0.24 -0.24)">
      <defs>
       <path d="M 2694 1069 
L 3275 997 
Q 3138 488 2766 206 
Q 2394 -75 1816 -75 
Q 1088 -75 661 373 
Q 234 822 234 1631 
Q 234 2469 665 2931 
Q 1097 3394 1784 3394 
Q 2450 3394 2872 2941 
Q 3294 2488 3294 1666 
Q 3294 1616 3291 1516 
L 816 1516 
Q 847 969 1125 678 
Q 1403 388 1819 388 
Q 2128 388 2347 550 
Q 2566 713 2694 1069 
z
M 847 1978 
L 2700 1978 
Q 2663 2397 2488 2606 
Q 2219 2931 1791 2931 
Q 1403 2931 1139 2672 
Q 875 2413 847 1978 
z
" id="ArialMT-65" transform="scale(0.015625)"/>
       <path d="M 409 0 
L 409 4581 
L 972 4581 
L 972 0 
L 409 0 
z
" id="ArialMT-6c" transform="scale(0.015625)"/>
       <path d="M 1344 0 
L 81 3319 
L 675 3319 
L 1388 1331 
Q 1503 1009 1600 663 
Q 1675 925 1809 1294 
L 2547 3319 
L 3125 3319 
L 1869 0 
L 1344 0 
z
" id="ArialMT-76" transform="scale(0.015625)"/>
       <path d="M 2588 409 
Q 2275 144 1986 34 
Q 1697 -75 1366 -75 
Q 819 -75 525 192 
Q 231 459 231 875 
Q 231 1119 342 1320 
Q 453 1522 633 1644 
Q 813 1766 1038 1828 
Q 1203 1872 1538 1913 
Q 2219 1994 2541 2106 
Q 2544 2222 2544 2253 
Q 2544 2597 2384 2738 
Q 2169 2928 1744 2928 
Q 1347 2928 1158 2789 
Q 969 2650 878 2297 
L 328 2372 
Q 403 2725 575 2942 
Q 747 3159 1072 3276 
Q 1397 3394 1825 3394 
Q 2250 3394 2515 3294 
Q 2781 3194 2906 3042 
Q 3031 2891 3081 2659 
Q 3109 2516 3109 2141 
L 3109 1391 
Q 3109 606 3145 398 
Q 3181 191 3288 0 
L 2700 0 
Q 2613 175 2588 409 
z
M 2541 1666 
Q 2234 1541 1622 1453 
Q 1275 1403 1131 1340 
Q 988 1278 909 1158 
Q 831 1038 831 891 
Q 831 666 1001 516 
Q 1172 366 1500 366 
Q 1825 366 2078 508 
Q 2331 650 2450 897 
Q 2541 1088 2541 1459 
L 2541 1666 
z
" id="ArialMT-61" transform="scale(0.015625)"/>
       <path d="M 1650 503 
L 1731 6 
Q 1494 -44 1306 -44 
Q 1000 -44 831 53 
Q 663 150 594 308 
Q 525 466 525 972 
L 525 2881 
L 113 2881 
L 113 3319 
L 525 3319 
L 525 4141 
L 1084 4478 
L 1084 3319 
L 1650 3319 
L 1650 2881 
L 1084 2881 
L 1084 941 
Q 1084 700 1114 631 
Q 1144 563 1211 522 
Q 1278 481 1403 481 
Q 1497 481 1650 503 
z
" id="ArialMT-74" transform="scale(0.015625)"/>
       <path d="M 425 3934 
L 425 4581 
L 988 4581 
L 988 3934 
L 425 3934 
z
M 425 0 
L 425 3319 
L 988 3319 
L 988 0 
L 425 0 
z
" id="ArialMT-69" transform="scale(0.015625)"/>
       <path d="M 213 1659 
Q 213 2581 725 3025 
Q 1153 3394 1769 3394 
Q 2453 3394 2887 2945 
Q 3322 2497 3322 1706 
Q 3322 1066 3130 698 
Q 2938 331 2570 128 
Q 2203 -75 1769 -75 
Q 1072 -75 642 372 
Q 213 819 213 1659 
z
M 791 1659 
Q 791 1022 1069 705 
Q 1347 388 1769 388 
Q 2188 388 2466 706 
Q 2744 1025 2744 1678 
Q 2744 2294 2464 2611 
Q 2184 2928 1769 2928 
Q 1347 2928 1069 2612 
Q 791 2297 791 1659 
z
" id="ArialMT-6f" transform="scale(0.015625)"/>
       <path d="M 422 0 
L 422 3319 
L 928 3319 
L 928 2847 
Q 1294 3394 1984 3394 
Q 2284 3394 2536 3286 
Q 2788 3178 2913 3003 
Q 3038 2828 3088 2588 
Q 3119 2431 3119 2041 
L 3119 0 
L 2556 0 
L 2556 2019 
Q 2556 2363 2490 2533 
Q 2425 2703 2258 2804 
Q 2091 2906 1866 2906 
Q 1506 2906 1245 2678 
Q 984 2450 984 1813 
L 984 0 
L 422 0 
z
" id="ArialMT-6e" transform="scale(0.015625)"/>
       <path id="ArialMT-20" transform="scale(0.015625)"/>
       <path d="M 1497 -1347 
Q 1031 -759 709 28 
Q 388 816 388 1659 
Q 388 2403 628 3084 
Q 909 3875 1497 4659 
L 1900 4659 
Q 1522 4009 1400 3731 
Q 1209 3300 1100 2831 
Q 966 2247 966 1656 
Q 966 153 1900 -1347 
L 1497 -1347 
z
" id="ArialMT-28" transform="scale(0.015625)"/>
       <path d="M 422 0 
L 422 3319 
L 925 3319 
L 925 2853 
Q 1081 3097 1340 3245 
Q 1600 3394 1931 3394 
Q 2300 3394 2536 3241 
Q 2772 3088 2869 2813 
Q 3263 3394 3894 3394 
Q 4388 3394 4653 3120 
Q 4919 2847 4919 2278 
L 4919 0 
L 4359 0 
L 4359 2091 
Q 4359 2428 4304 2576 
Q 4250 2725 4106 2815 
Q 3963 2906 3769 2906 
Q 3419 2906 3187 2673 
Q 2956 2441 2956 1928 
L 2956 0 
L 2394 0 
L 2394 2156 
Q 2394 2531 2256 2718 
Q 2119 2906 1806 2906 
Q 1569 2906 1367 2781 
Q 1166 2656 1075 2415 
Q 984 2175 984 1722 
L 984 0 
L 422 0 
z
" id="ArialMT-6d" transform="scale(0.015625)"/>
       <path d="M 581 0 
L 581 641 
L 1222 641 
L 1222 0 
L 581 0 
z
" id="ArialMT-2e" transform="scale(0.015625)"/>
       <path d="M 197 991 
L 753 1078 
Q 800 744 1014 566 
Q 1228 388 1613 388 
Q 2000 388 2187 545 
Q 2375 703 2375 916 
Q 2375 1106 2209 1216 
Q 2094 1291 1634 1406 
Q 1016 1563 777 1677 
Q 538 1791 414 1992 
Q 291 2194 291 2438 
Q 291 2659 392 2848 
Q 494 3038 669 3163 
Q 800 3259 1026 3326 
Q 1253 3394 1513 3394 
Q 1903 3394 2198 3281 
Q 2494 3169 2634 2976 
Q 2775 2784 2828 2463 
L 2278 2388 
Q 2241 2644 2061 2787 
Q 1881 2931 1553 2931 
Q 1166 2931 1000 2803 
Q 834 2675 834 2503 
Q 834 2394 903 2306 
Q 972 2216 1119 2156 
Q 1203 2125 1616 2013 
Q 2213 1853 2448 1751 
Q 2684 1650 2818 1456 
Q 2953 1263 2953 975 
Q 2953 694 2789 445 
Q 2625 197 2315 61 
Q 2006 -75 1616 -75 
Q 969 -75 630 194 
Q 291 463 197 991 
z
" id="ArialMT-73" transform="scale(0.015625)"/>
       <path d="M 791 -1347 
L 388 -1347 
Q 1322 153 1322 1656 
Q 1322 2244 1188 2822 
Q 1081 3291 891 3722 
Q 769 4003 388 4659 
L 791 4659 
Q 1378 3875 1659 3084 
Q 1900 2403 1900 1659 
Q 1900 816 1576 28 
Q 1253 -759 791 -1347 
z
" id="ArialMT-29" transform="scale(0.015625)"/>
      </defs>
      <use xlink:href="#ArialMT-65"/>
      <use x="55.615234" xlink:href="#ArialMT-6c"/>
      <use x="77.832031" xlink:href="#ArialMT-65"/>
      <use x="133.447266" xlink:href="#ArialMT-76"/>
      <use x="183.447266" xlink:href="#ArialMT-61"/>
      <use x="239.0625" xlink:href="#ArialMT-74"/>
      <use x="266.845703" xlink:href="#ArialMT-69"/>
      <use x="289.0625" xlink:href="#ArialMT-6f"/>
      <use x="344.677734" xlink:href="#ArialMT-6e"/>
      <use x="400.292969" xlink:href="#ArialMT-20"/>
      <use x="428.076172" xlink:href="#ArialMT-28"/>
      <use x="461.376953" xlink:href="#ArialMT-6d"/>
      <use x="544.677734" xlink:href="#ArialMT-20"/>
      <use x="572.460938" xlink:href="#ArialMT-61"/>
      <use x="628.076172" xlink:href="#ArialMT-2e"/>
      <use x="655.859375" xlink:href="#ArialMT-73"/>
      <use x="705.859375" xlink:href="#ArialMT-2e"/>
      <use x="733.642578" xlink:href="#ArialMT-6c"/>
      <use x="755.859375" xlink:href="#ArialMT-29"/>
     </g>
    </g>
   </g>
   <g id="matplotlib.axis_2">
    <g id="ytick_1">
     <g id="line2d_5">
      <path clip-path="url(#p63dc96736a)" d="M 108.990313 178.694984 
L 391.400312 178.694984 
" style="fill:none;stroke:#ffffff;stroke-linecap:round;"/>
     </g>
     <g id="text_6">
      <!-- 0 -->
      <g style="fill:#262626;" transform="translate(87.25625 186.568577)scale(0.22 -0.22)">
       <use xlink:href="#ArialMT-30"/>
      </g>
     </g>
    </g>
    <g id="ytick_2">
     <g id="line2d_6">
      <path clip-path="url(#p63dc96736a)" d="M 108.990313 99.433928 
L 391.400312 99.433928 
" style="fill:none;stroke:#ffffff;stroke-linecap:round;"/>
     </g>
     <g id="text_7">
      <!-- 5000 -->
      <g style="fill:#262626;" transform="translate(50.554063 107.307521)scale(0.22 -0.22)">
       <defs>
        <path d="M 266 1200 
L 856 1250 
Q 922 819 1161 601 
Q 1400 384 1738 384 
Q 2144 384 2425 690 
Q 2706 997 2706 1503 
Q 2706 1984 2436 2262 
Q 2166 2541 1728 2541 
Q 1456 2541 1237 2417 
Q 1019 2294 894 2097 
L 366 2166 
L 809 4519 
L 3088 4519 
L 3088 3981 
L 1259 3981 
L 1013 2750 
Q 1425 3038 1878 3038 
Q 2478 3038 2890 2622 
Q 3303 2206 3303 1553 
Q 3303 931 2941 478 
Q 2500 -78 1738 -78 
Q 1113 -78 717 272 
Q 322 622 266 1200 
z
" id="ArialMT-35" transform="scale(0.015625)"/>
       </defs>
       <use xlink:href="#ArialMT-35"/>
       <use x="55.615234" xlink:href="#ArialMT-30"/>
       <use x="111.230469" xlink:href="#ArialMT-30"/>
       <use x="166.845703" xlink:href="#ArialMT-30"/>
      </g>
     </g>
    </g>
    <g id="ytick_3">
     <g id="line2d_7">
      <path clip-path="url(#p63dc96736a)" d="M 108.990313 20.172872 
L 391.400312 20.172872 
" style="fill:none;stroke:#ffffff;stroke-linecap:round;"/>
     </g>
     <g id="text_8">
      <!-- 10000 -->
      <g style="fill:#262626;" transform="translate(38.32 28.046466)scale(0.22 -0.22)">
       <use xlink:href="#ArialMT-31"/>
       <use x="55.615234" xlink:href="#ArialMT-30"/>
       <use x="111.230469" xlink:href="#ArialMT-30"/>
       <use x="166.845703" xlink:href="#ArialMT-30"/>
       <use x="222.460938" xlink:href="#ArialMT-30"/>
      </g>
     </g>
    </g>
    <g id="text_9">
     <!-- area (km$^2$) -->
     <g style="fill:#262626;" transform="translate(29.04 154.27)rotate(-90)scale(0.24 -0.24)">
      <defs>
       <path d="M 416 0 
L 416 3319 
L 922 3319 
L 922 2816 
Q 1116 3169 1280 3281 
Q 1444 3394 1641 3394 
Q 1925 3394 2219 3213 
L 2025 2691 
Q 1819 2813 1613 2813 
Q 1428 2813 1281 2702 
Q 1134 2591 1072 2394 
Q 978 2094 978 1738 
L 978 0 
L 416 0 
z
" id="ArialMT-72" transform="scale(0.015625)"/>
       <path d="M 425 0 
L 425 4581 
L 988 4581 
L 988 1969 
L 2319 3319 
L 3047 3319 
L 1778 2088 
L 3175 0 
L 2481 0 
L 1384 1697 
L 988 1316 
L 988 0 
L 425 0 
z
" id="ArialMT-6b" transform="scale(0.015625)"/>
       <path d="M 1228 531 
L 3431 531 
L 3431 0 
L 469 0 
L 469 531 
Q 828 903 1448 1529 
Q 2069 2156 2228 2338 
Q 2531 2678 2651 2914 
Q 2772 3150 2772 3378 
Q 2772 3750 2511 3984 
Q 2250 4219 1831 4219 
Q 1534 4219 1204 4116 
Q 875 4013 500 3803 
L 500 4441 
Q 881 4594 1212 4672 
Q 1544 4750 1819 4750 
Q 2544 4750 2975 4387 
Q 3406 4025 3406 3419 
Q 3406 3131 3298 2873 
Q 3191 2616 2906 2266 
Q 2828 2175 2409 1742 
Q 1991 1309 1228 531 
z
" id="DejaVuSans-32" transform="scale(0.015625)"/>
      </defs>
      <use transform="translate(0 0.765625)" xlink:href="#ArialMT-61"/>
      <use transform="translate(55.615234 0.765625)" xlink:href="#ArialMT-72"/>
      <use transform="translate(88.916016 0.765625)" xlink:href="#ArialMT-65"/>
      <use transform="translate(144.53125 0.765625)" xlink:href="#ArialMT-61"/>
      <use transform="translate(200.146484 0.765625)" xlink:href="#ArialMT-20"/>
      <use transform="translate(227.929688 0.765625)" xlink:href="#ArialMT-28"/>
      <use transform="translate(261.230469 0.765625)" xlink:href="#ArialMT-6b"/>
      <use transform="translate(311.230469 0.765625)" xlink:href="#ArialMT-6d"/>
      <use transform="translate(395.488281 39.046875)scale(0.7)" xlink:href="#DejaVuSans-32"/>
      <use transform="translate(442.758789 0.765625)" xlink:href="#ArialMT-29"/>
     </g>
    </g>
   </g>
   <g id="line2d_8">
    <path clip-path="url(#p63dc96736a)" d="M 121.827131 173.216606 
L 129.850142 173.19026 
L 129.850142 172.522708 
L 133.861648 172.522708 
L 133.861648 171.138013 
L 137.873153 171.138013 
L 137.873153 169.152937 
L 141.884659 169.152937 
L 141.884659 167.286018 
L 145.896165 167.286018 
L 145.896165 165.905284 
L 149.90767 165.905284 
L 149.90767 163.368686 
L 153.919176 163.368686 
L 153.919176 161.199321 
L 157.930682 161.199321 
L 157.930682 159.740345 
L 161.942187 159.740345 
L 161.942187 158.074906 
L 165.953693 158.074906 
L 165.953693 156.009089 
L 169.965199 156.009089 
L 169.965199 153.659865 
L 173.976705 153.659865 
L 173.976705 153.081885 
L 177.98821 153.081885 
L 177.98821 151.478195 
L 181.999716 151.478195 
L 181.999716 150.70802 
L 190.022727 150.729707 
L 190.022727 151.262609 
L 194.034233 151.262609 
L 194.034233 149.934582 
L 198.045739 149.934582 
L 198.045739 151.129891 
L 202.057244 151.129891 
L 202.057244 149.907295 
L 206.06875 149.907295 
L 206.06875 149.60428 
L 210.080256 149.60428 
L 210.080256 149.368923 
L 214.091761 149.368923 
L 214.091761 148.636667 
L 218.103267 148.636667 
L 218.103267 146.865489 
L 222.114773 146.865489 
L 222.114773 145.820965 
L 226.126278 145.820965 
L 226.126278 144.92502 
L 230.137784 144.92502 
L 230.137784 144.540793 
L 234.14929 144.540793 
L 234.14929 142.390792 
L 238.160795 142.390792 
L 238.160795 143.558911 
L 242.172301 143.558911 
L 242.172301 141.233387 
L 246.183807 141.233387 
L 246.183807 140.494363 
L 250.195312 140.494363 
L 250.195312 138.379506 
L 254.206818 138.379506 
L 254.206818 135.965904 
L 258.218324 135.965904 
L 258.218324 134.062884 
L 262.22983 134.062884 
L 262.22983 130.566611 
L 266.241335 130.566611 
L 266.241335 126.62584 
L 270.252841 126.62584 
L 270.252841 126.5145 
L 274.264347 126.5145 
L 274.264347 120.98335 
L 278.275852 120.98335 
L 278.275852 117.382295 
L 282.287358 117.382295 
L 282.287358 109.767958 
L 286.298864 109.767958 
L 286.298864 108.704281 
L 290.310369 108.704281 
L 290.310369 99.897492 
L 294.321875 99.897492 
L 294.321875 93.570292 
L 298.333381 93.570292 
L 298.333381 83.180478 
L 302.344886 83.180478 
L 302.344886 68.849097 
L 306.356392 68.849097 
L 306.356392 46.064474 
L 310.367898 46.064474 
L 310.367898 25.69649 
L 314.379403 25.69649 
L 314.379403 65.77312 
L 318.390909 65.77312 
L 318.390909 76.463726 
L 322.402415 76.463726 
L 322.402415 81.871362 
L 326.41392 81.871362 
L 326.41392 78.113938 
L 330.425426 78.113938 
L 330.425426 77.793976 
L 334.436932 77.793976 
L 334.436932 96.919383 
L 338.448437 96.919383 
L 338.448437 110.968315 
L 342.459943 110.968315 
L 342.459943 135.92964 
L 346.471449 135.92964 
L 346.471449 160.653514 
L 350.482955 160.653514 
L 350.482955 173.479883 
L 354.49446 173.479883 
L 354.49446 174.980268 
L 358.505966 174.980268 
L 358.505966 176.303799 
L 362.517472 176.303799 
L 362.517472 178.310237 
L 366.528977 178.310237 
L 366.528977 178.692695 
L 378.563494 178.693636 
L 378.563494 178.693636 
" style="fill:none;stroke:#4c72b0;stroke-linecap:round;stroke-width:1.5;"/>
   </g>
   <g id="line2d_9">
    <path clip-path="url(#p63dc96736a)" d="M 121.854031 177.778 
L 125.276628 177.778 
L 125.276628 177.455701 
L 128.699226 177.455701 
L 128.699226 177.177944 
L 132.121823 177.177944 
L 132.121823 176.31034 
L 135.544421 176.31034 
L 135.544421 175.760524 
L 138.967018 175.760524 
L 138.967018 175.374089 
L 142.389616 175.374089 
L 142.389616 174.827275 
L 145.812213 174.827275 
L 145.812213 174.224768 
L 149.234811 174.224768 
L 149.234811 173.673263 
L 152.657408 173.673263 
L 152.657408 172.914207 
L 156.080006 172.914207 
L 156.080006 171.190931 
L 159.502603 171.190931 
L 159.502603 169.828443 
L 162.925201 169.828443 
L 162.925201 168.603769 
L 166.347798 168.603769 
L 166.347798 167.376629 
L 169.770396 167.376629 
L 169.770396 166.872264 
L 173.192993 166.872264 
L 173.192993 164.584188 
L 176.615591 164.584188 
L 176.615591 161.952841 
L 180.038189 161.952841 
L 180.038189 159.750604 
L 183.460786 159.750604 
L 183.460786 154.734402 
L 186.883384 154.734402 
L 186.883384 152.28801 
L 190.305981 152.28801 
L 190.305981 149.012567 
L 193.728579 149.012567 
L 193.728579 146.910518 
L 197.151176 146.910518 
L 197.151176 144.889162 
L 200.573774 144.889162 
L 200.573774 142.703515 
L 203.996371 142.703515 
L 203.996371 141.674201 
L 207.418969 141.674201 
L 207.418969 135.500871 
L 210.841566 135.500871 
L 210.841566 133.467616 
L 214.264164 133.467616 
L 214.264164 130.758936 
L 217.686761 130.758936 
L 217.686761 126.231808 
L 221.109359 126.231808 
L 221.109359 123.764752 
L 224.531956 123.764752 
L 224.531956 120.829366 
L 227.954554 120.829366 
L 227.954554 117.642959 
L 231.377151 117.642959 
L 231.377151 112.441559 
L 234.799749 112.441559 
L 234.799749 108.068902 
L 238.222346 108.068902 
L 238.222346 102.42534 
L 245.067541 102.325379 
L 245.067541 108.048919 
L 248.490139 108.048919 
L 248.490139 107.555381 
L 251.912736 107.555381 
L 251.912736 108.205321 
L 255.335334 108.205321 
L 255.335334 105.951107 
L 258.757931 105.951107 
L 258.757931 102.373671 
L 262.180529 102.373671 
L 262.180529 98.342419 
L 265.603126 98.342419 
L 265.603126 92.957054 
L 269.025724 92.957054 
L 269.025724 92.814499 
L 272.448321 92.814499 
L 272.448321 89.774137 
L 275.870919 89.774137 
L 275.870919 88.37032 
L 279.293517 88.37032 
L 279.293517 83.092983 
L 282.716114 83.092983 
L 282.716114 80.009784 
L 286.138712 80.009784 
L 286.138712 78.888788 
L 289.561309 78.888788 
L 289.561309 71.758834 
L 292.983907 71.758834 
L 292.983907 59.765216 
L 296.406504 59.765216 
L 296.406504 51.631142 
L 299.829102 51.631142 
L 299.829102 40.3285 
L 303.251699 40.3285 
L 303.251699 36.446751 
L 306.674297 36.446751 
L 306.674297 27.794302 
L 310.096894 27.794302 
L 310.096894 15.366364 
L 313.519492 15.366364 
L 313.519492 65.32044 
L 316.942089 65.32044 
L 316.942089 88.610028 
L 320.364687 88.610028 
L 320.364687 102.024702 
L 323.787284 102.024702 
L 323.787284 106.670977 
L 327.209882 106.670977 
L 327.209882 113.612324 
L 330.632479 113.612324 
L 330.632479 125.267913 
L 334.055077 125.267913 
L 334.055077 147.120406 
L 337.477674 147.120406 
L 337.477674 171.427522 
L 340.900272 171.427522 
L 340.900272 171.427522 
" style="fill:none;stroke:#dd8452;stroke-linecap:round;stroke-width:1.5;"/>
   </g>
   <g id="patch_3">
    <path d="M 108.990313 186.86 
L 108.990313 7.2 
" style="fill:none;stroke:#ffffff;stroke-linecap:square;stroke-linejoin:miter;stroke-width:1.25;"/>
   </g>
   <g id="patch_4">
    <path d="M 391.400312 186.86 
L 391.400312 7.2 
" style="fill:none;stroke:#ffffff;stroke-linecap:square;stroke-linejoin:miter;stroke-width:1.25;"/>
   </g>
   <g id="patch_5">
    <path d="M 108.990313 186.86 
L 391.400312 186.86 
" style="fill:none;stroke:#ffffff;stroke-linecap:square;stroke-linejoin:miter;stroke-width:1.25;"/>
   </g>
   <g id="patch_6">
    <path d="M 108.990313 7.2 
L 391.400312 7.2 
" style="fill:none;stroke:#ffffff;stroke-linecap:square;stroke-linejoin:miter;stroke-width:1.25;"/>
   </g>
   <g id="legend_1">
    <g id="patch_7">
     <path d="M 124.390313 87.039375 
L 230.230938 87.039375 
Q 234.630938 87.039375 234.630938 82.639375 
L 234.630938 22.6 
Q 234.630938 18.2 230.230938 18.2 
L 124.390313 18.2 
Q 119.990313 18.2 119.990313 22.6 
L 119.990313 82.639375 
Q 119.990313 87.039375 124.390313 87.039375 
z
" style="fill:#eaeaf2;opacity:0.8;stroke:#cccccc;stroke-linejoin:miter;"/>
    </g>
    <g id="line2d_10">
     <path d="M 128.790312 35.047187 
L 172.790312 35.047187 
" style="fill:none;stroke:#4c72b0;stroke-linecap:round;stroke-width:1.5;"/>
    </g>
    <g id="line2d_11"/>
    <g id="text_10">
     <!-- SE -->
     <g style="fill:#262626;" transform="translate(190.390312 42.747187)scale(0.22 -0.22)">
      <defs>
       <path d="M 288 1472 
L 859 1522 
Q 900 1178 1048 958 
Q 1197 738 1509 602 
Q 1822 466 2213 466 
Q 2559 466 2825 569 
Q 3091 672 3220 851 
Q 3350 1031 3350 1244 
Q 3350 1459 3225 1620 
Q 3100 1781 2813 1891 
Q 2628 1963 1997 2114 
Q 1366 2266 1113 2400 
Q 784 2572 623 2826 
Q 463 3081 463 3397 
Q 463 3744 659 4045 
Q 856 4347 1234 4503 
Q 1613 4659 2075 4659 
Q 2584 4659 2973 4495 
Q 3363 4331 3572 4012 
Q 3781 3694 3797 3291 
L 3216 3247 
Q 3169 3681 2898 3903 
Q 2628 4125 2100 4125 
Q 1550 4125 1298 3923 
Q 1047 3722 1047 3438 
Q 1047 3191 1225 3031 
Q 1400 2872 2139 2705 
Q 2878 2538 3153 2413 
Q 3553 2228 3743 1945 
Q 3934 1663 3934 1294 
Q 3934 928 3725 604 
Q 3516 281 3123 101 
Q 2731 -78 2241 -78 
Q 1619 -78 1198 103 
Q 778 284 539 648 
Q 300 1013 288 1472 
z
" id="ArialMT-53" transform="scale(0.015625)"/>
       <path d="M 506 0 
L 506 4581 
L 3819 4581 
L 3819 4041 
L 1113 4041 
L 1113 2638 
L 3647 2638 
L 3647 2100 
L 1113 2100 
L 1113 541 
L 3925 541 
L 3925 0 
L 506 0 
z
" id="ArialMT-45" transform="scale(0.015625)"/>
      </defs>
      <use xlink:href="#ArialMT-53"/>
      <use x="66.699219" xlink:href="#ArialMT-45"/>
     </g>
    </g>
    <g id="line2d_12">
     <path d="M 128.790312 66.166875 
L 172.790312 66.166875 
" style="fill:none;stroke:#dd8452;stroke-linecap:round;stroke-width:1.5;"/>
    </g>
    <g id="line2d_13"/>
    <g id="text_11">
     <!-- SW -->
     <g style="fill:#262626;" transform="translate(190.390312 73.866875)scale(0.22 -0.22)">
      <defs>
       <path d="M 1294 0 
L 78 4581 
L 700 4581 
L 1397 1578 
Q 1509 1106 1591 641 
Q 1766 1375 1797 1488 
L 2669 4581 
L 3400 4581 
L 4056 2263 
Q 4303 1400 4413 641 
Q 4500 1075 4641 1638 
L 5359 4581 
L 5969 4581 
L 4713 0 
L 4128 0 
L 3163 3491 
Q 3041 3928 3019 4028 
Q 2947 3713 2884 3491 
L 1913 0 
L 1294 0 
z
" id="ArialMT-57" transform="scale(0.015625)"/>
      </defs>
      <use xlink:href="#ArialMT-53"/>
      <use x="66.699219" xlink:href="#ArialMT-57"/>
     </g>
    </g>
   </g>
  </g>
 </g>
 <defs>
  <clipPath id="p63dc96736a">
   <rect height="179.66" width="282.41" x="108.990313" y="7.2"/>
  </clipPath>
 </defs>
</svg>
